# Blender v2.78 (sub 0) OBJ File: 'PhotoFrame.blend'
# www.blender.org
mtllib PhotoFrame.mtl
o Cube_Cube.001
v 0.000980 0.012263 0.217442
v 0.000980 0.447147 0.217442
v 0.000980 0.012263 -0.217442
v 0.000980 0.447147 -0.217442
v 0.011356 0.012263 0.217442
v 0.011356 0.447147 0.217442
v 0.011356 0.012263 -0.217442
v 0.011356 0.447147 -0.217442
v 0.015401 0.440211 -0.210506
v 0.015401 0.019198 -0.210506
v 0.015401 0.019198 0.210506
v 0.015401 0.440211 0.210506
v 0.015401 0.440211 -0.210506
v 0.015401 0.019198 -0.210506
v 0.015401 0.019198 0.210506
v 0.015401 0.440211 0.210506
v 0.017516 0.440211 -0.210506
v 0.017516 0.019198 -0.210506
v 0.017516 0.019198 0.210506
v 0.017516 0.440211 0.210506
v 0.022319 0.434997 -0.205292
v 0.022319 0.024413 -0.205292
v 0.022319 0.024413 0.205292
v 0.022319 0.434997 0.205292
v 0.022319 0.432860 -0.203155
v 0.022319 0.026550 -0.203155
v 0.022319 0.026550 0.203155
v 0.022319 0.432860 0.203155
v 0.016481 0.428033 -0.198328
v 0.016481 0.031377 -0.198328
v 0.016481 0.031377 0.198328
v 0.016481 0.428033 0.198328
v 0.013626 0.428033 -0.198328
v 0.013626 0.031377 -0.198328
v 0.013626 0.031377 0.198328
v 0.013626 0.428033 0.198328
vt 0.0000 0.0000
vt 0.0000 0.0000
vt 0.0000 0.0000
vt 0.0000 0.0000
vt 0.0000 0.0000
vt 0.0000 0.0000
vt 0.0000 0.0000
vt 0.0000 0.0000
vt 0.0000 0.0000
vt 0.0000 0.0000
vt 0.0000 0.0000
vt 0.0000 0.0000
vt 0.0000 0.0000
vt 0.0000 0.0000
vt 0.0000 0.0000
vt 0.0000 0.0000
vt 0.0000 0.0000
vt 0.0000 0.0000
vt 0.0000 0.0000
vt 0.0000 0.0000
vt 0.0000 0.0000
vt 0.0000 0.0000
vt 0.0000 0.0000
vt 0.0000 0.0000
vt 0.0000 0.0000
vt 0.0000 0.0000
vt 0.0000 0.0000
vt 0.0000 0.0000
vt 0.0000 0.0000
vt 0.0000 0.0000
vt 0.0000 0.0000
vt 0.0000 0.0000
vt 0.0000 0.0000
vt 0.0000 0.0000
vt 0.0000 0.0000
vt 0.0000 0.0000
vt 1.0000 0.0001
vt 1.0000 0.9999
vt 0.0001 0.9999
vt 0.0001 0.0001
vn -1.0000 0.0000 0.0000
vn 0.0000 0.0000 -1.0000
vn 0.8638 0.0000 -0.5038
vn 0.0000 0.0000 1.0000
vn 0.0000 -1.0000 0.0000
vn 0.0000 1.0000 0.0000
vn 0.8638 0.0000 0.5038
vn 0.8638 -0.5038 0.0000
vn 0.8638 0.5038 0.0000
vn 0.7355 0.0000 -0.6775
vn 1.0000 0.0000 0.0000
vn 0.7355 0.0000 0.6775
vn 0.7355 -0.6775 0.0000
vn 0.7355 0.6775 0.0000
vn 0.6372 -0.7707 0.0000
vn 0.6372 0.0000 0.7707
vn 0.6372 0.0000 -0.7707
vn 0.6372 0.7707 0.0000
usemtl Material.001
s off
f 1/1/1 2/2/1 4/3/1 3/4/1
f 3/4/2 4/3/2 8/5/2 7/6/2
f 7/6/3 8/5/3 9/7/3 10/8/3
f 5/9/4 6/10/4 2/2/4 1/1/4
f 3/4/5 7/6/5 5/9/5 1/1/5
f 8/5/6 4/3/6 2/2/6 6/10/6
f 12/11/4 11/12/4 15/13/4 16/14/4
f 6/10/7 5/9/7 11/12/7 12/11/7
f 5/9/8 7/6/8 10/8/8 11/12/8
f 8/5/9 6/10/9 12/11/9 9/7/9
f 13/15/6 16/14/6 20/16/6 17/17/6
f 11/12/4 10/8/4 14/18/4 15/13/4
f 9/7/4 12/11/4 16/14/4 13/15/4
f 10/8/4 9/7/4 13/15/4 14/18/4
f 18/19/10 17/17/10 21/20/10 22/21/10
f 14/18/2 13/15/2 17/17/2 18/19/2
f 16/14/4 15/13/4 19/22/4 20/16/4
f 15/13/5 14/18/5 18/19/5 19/22/5
f 24/23/11 23/24/11 27/25/11 28/26/11
f 20/16/12 19/22/12 23/24/12 24/23/12
f 19/22/13 18/19/13 22/21/13 23/24/13
f 17/17/14 20/16/14 24/23/14 21/20/14
f 25/27/15 28/26/15 32/28/15 29/29/15
f 23/24/11 22/21/11 26/30/11 27/25/11
f 21/20/11 24/23/11 28/26/11 25/27/11
f 22/21/11 21/20/11 25/27/11 26/30/11
f 32/28/2 31/31/2 35/32/2 36/33/2
f 26/30/16 25/27/16 29/29/16 30/34/16
f 28/26/17 27/25/17 31/31/17 32/28/17
f 27/25/18 26/30/18 30/34/18 31/31/18
f 31/31/6 30/34/6 34/35/6 35/32/6
f 29/29/5 32/28/5 36/33/5 33/36/5
f 30/34/4 29/29/4 33/36/4 34/35/4
usemtl Material.002
f 34/37/11 33/38/11 36/39/11 35/40/11
