# Blender v2.78 (sub 0) OBJ File: 'WallSide.blend'
# www.blender.org
mtllib WallSide.mtl
o Plane
v -0.000000 0.124987 -0.402641
v 0.000000 0.171237 -0.288329
v 0.078551 0.124987 -0.394904
v 0.056250 0.171237 -0.282789
v 0.154084 0.124987 -0.371992
v 0.110339 0.171237 -0.266382
v 0.223695 0.124987 -0.334784
v 0.160187 0.171237 -0.239737
v 0.284710 0.124987 -0.284710
v 0.203880 0.171237 -0.203880
v 0.334784 0.124987 -0.223695
v 0.239737 0.171237 -0.160187
v 0.371992 0.124987 -0.154084
v 0.266382 0.171237 -0.110339
v 0.394905 0.124987 -0.078551
v 0.282789 0.171237 -0.056250
v 0.402641 0.124987 0.000000
v 0.288329 0.171237 -0.000000
v 0.394905 0.124987 0.078551
v 0.282789 0.171237 0.056250
v 0.371992 0.124987 0.154084
v 0.266382 0.171237 0.110339
v 0.334784 0.124987 0.223695
v 0.239737 0.171237 0.160187
v 0.284710 0.124987 0.284710
v 0.203880 0.171237 0.203880
v 0.223695 0.124987 0.334784
v 0.160187 0.171237 0.239737
v 0.154084 0.124987 0.371992
v 0.110339 0.171237 0.266382
v 0.078551 0.124987 0.394905
v 0.056250 0.171237 0.282789
v -0.000000 0.124987 0.402641
v -0.000000 0.171237 0.288329
v -0.078552 0.124987 0.394905
v -0.056250 0.171237 0.282789
v -0.154084 0.124987 0.371992
v -0.110339 0.171237 0.266381
v -0.223696 0.124987 0.334784
v -0.160187 0.171237 0.239737
v -0.284711 0.124987 0.284710
v -0.203880 0.171237 0.203879
v -0.334784 0.124987 0.223695
v -0.239737 0.171237 0.160187
v -0.371992 0.124987 0.154084
v -0.266382 0.171237 0.110339
v -0.394905 0.124987 0.078551
v -0.282789 0.171237 0.056250
v -0.402641 0.124987 -0.000000
v -0.288329 0.171237 -0.000000
v -0.394904 0.124987 -0.078552
v -0.282789 0.171237 -0.056251
v -0.371992 0.124987 -0.154085
v -0.266381 0.171237 -0.110339
v -0.334784 0.124987 -0.223696
v -0.239737 0.171237 -0.160187
v -0.284710 0.124987 -0.284711
v -0.203879 0.171237 -0.203880
v -0.223695 0.124987 -0.334784
v -0.160187 0.171237 -0.239737
v -0.154084 0.124987 -0.371992
v -0.110338 0.171237 -0.266382
v -0.078551 0.124987 -0.394905
v -0.056250 0.171237 -0.282789
v 0.044389 0.183069 -0.223161
v 0.000000 0.183069 -0.227533
v 0.087073 0.183069 -0.210213
v 0.126410 0.183069 -0.189187
v 0.160890 0.183069 -0.160890
v 0.189187 0.183069 -0.126410
v 0.210213 0.183069 -0.087073
v 0.223161 0.183069 -0.044389
v 0.227533 0.183069 -0.000000
v 0.223161 0.183069 0.044389
v 0.210213 0.183069 0.087073
v 0.189187 0.183069 0.126410
v 0.160890 0.183069 0.160890
v 0.126410 0.183069 0.189187
v 0.087073 0.183069 0.210213
v 0.044389 0.183069 0.223161
v -0.000000 0.183069 0.227533
v -0.044390 0.183069 0.223161
v -0.087073 0.183069 0.210213
v -0.126411 0.183069 0.189187
v -0.160890 0.183069 0.160890
v -0.189187 0.183069 0.126410
v -0.210213 0.183069 0.087073
v -0.223161 0.183069 0.044389
v -0.227533 0.183069 -0.000000
v -0.223161 0.183069 -0.044390
v -0.210213 0.183069 -0.087073
v -0.189186 0.183069 -0.126411
v -0.160890 0.183069 -0.160890
v -0.126410 0.183069 -0.189187
v -0.087073 0.183069 -0.210213
v -0.044389 0.183069 -0.223161
v 0.056250 0.188300 -0.282789
v 0.000000 0.188300 -0.288329
v 0.160187 0.188300 -0.239737
v 0.110339 0.188300 -0.266382
v 0.239737 0.188300 -0.160187
v 0.203880 0.188300 -0.203880
v 0.282789 0.188300 -0.056250
v 0.266382 0.188300 -0.110339
v 0.282789 0.188300 0.056250
v 0.288329 0.188300 -0.000000
v 0.239737 0.188300 0.160187
v 0.266382 0.188300 0.110339
v 0.160187 0.188300 0.239737
v 0.203880 0.188300 0.203880
v 0.056250 0.188300 0.282789
v 0.110339 0.188300 0.266382
v -0.056250 0.188300 0.282789
v -0.000000 0.188300 0.288329
v -0.160187 0.188300 0.239737
v -0.110339 0.188300 0.266381
v -0.239737 0.188300 0.160187
v -0.203880 0.188300 0.203879
v -0.282789 0.188300 0.056250
v -0.266382 0.188300 0.110339
v -0.282789 0.188300 -0.056251
v -0.288329 0.188300 -0.000000
v -0.239737 0.188300 -0.160187
v -0.266381 0.188300 -0.110339
v -0.160187 0.188300 -0.239737
v -0.203879 0.188300 -0.203880
v -0.056250 0.188300 -0.282789
v -0.110338 0.188300 -0.266382
v 0.044389 0.200131 -0.223161
v 0.000000 0.200131 -0.227533
v 0.126410 0.200131 -0.189187
v 0.087073 0.200131 -0.210213
v 0.189187 0.200131 -0.126410
v 0.160890 0.200131 -0.160890
v 0.223161 0.200131 -0.044389
v 0.210213 0.200131 -0.087073
v 0.223161 0.200131 0.044389
v 0.227533 0.200131 -0.000000
v 0.189187 0.200131 0.126410
v 0.210213 0.200131 0.087073
v 0.126410 0.200131 0.189187
v 0.160890 0.200131 0.160890
v 0.044389 0.200131 0.223161
v 0.087073 0.200131 0.210213
v -0.044390 0.200131 0.223161
v -0.000000 0.200131 0.227533
v -0.126411 0.200131 0.189187
v -0.087073 0.200131 0.210213
v -0.189187 0.200131 0.126410
v -0.160890 0.200131 0.160890
v -0.223161 0.200131 0.044389
v -0.210213 0.200131 0.087073
v -0.223161 0.200131 -0.044390
v -0.227533 0.200131 -0.000000
v -0.189186 0.200131 -0.126411
v -0.210213 0.200131 -0.087073
v -0.126410 0.200131 -0.189187
v -0.160890 0.200131 -0.160890
v -0.044389 0.200131 -0.223161
v -0.087073 0.200131 -0.210213
v 0.039926 0.183069 -0.200719
v 0.000000 0.183069 -0.204652
v 0.078317 0.183069 -0.189073
v 0.113698 0.183069 -0.170162
v 0.144711 0.183069 -0.144711
v 0.170162 0.183069 -0.113698
v 0.189073 0.183069 -0.078317
v 0.200719 0.183069 -0.039926
v 0.204652 0.183069 -0.000000
v 0.200719 0.183069 0.039926
v 0.189073 0.183069 0.078317
v 0.170162 0.183069 0.113698
v 0.144711 0.183069 0.144711
v 0.113698 0.183069 0.170162
v 0.078317 0.183069 0.189073
v 0.039926 0.183069 0.200719
v -0.000000 0.183069 0.204652
v -0.039926 0.183069 0.200719
v -0.078317 0.183069 0.189073
v -0.113698 0.183069 0.170162
v -0.144711 0.183069 0.144710
v -0.170162 0.183069 0.113698
v -0.189074 0.183069 0.078317
v -0.200719 0.183069 0.039925
v -0.204652 0.183069 -0.000000
v -0.200719 0.183069 -0.039926
v -0.189073 0.183069 -0.078317
v -0.170161 0.183069 -0.113699
v -0.144710 0.183069 -0.144711
v -0.113698 0.183069 -0.170162
v -0.078317 0.183069 -0.189074
v -0.039925 0.183069 -0.200719
v 0.039926 0.003494 -0.200719
v 0.000000 0.003494 -0.204652
v 0.078317 0.003494 -0.189073
v 0.113698 0.003494 -0.170162
v 0.144711 0.003494 -0.144711
v 0.170162 0.003494 -0.113698
v 0.189073 0.003494 -0.078317
v 0.200719 0.003494 -0.039926
v 0.204652 0.003494 -0.000000
v 0.200719 0.003494 0.039926
v 0.189073 0.003494 0.078317
v 0.170162 0.003494 0.113698
v 0.144711 0.003494 0.144711
v 0.113698 0.003494 0.170162
v 0.078317 0.003494 0.189073
v 0.039926 0.003494 0.200719
v -0.000000 0.003494 0.204652
v -0.039926 0.003494 0.200719
v -0.078317 0.003494 0.189073
v -0.113698 0.003494 0.170162
v -0.144711 0.003494 0.144710
v -0.170162 0.003494 0.113698
v -0.189074 0.003494 0.078317
v -0.200719 0.003494 0.039925
v -0.204652 0.003494 -0.000000
v -0.200719 0.003494 -0.039926
v -0.189073 0.003494 -0.078317
v -0.170161 0.003494 -0.113699
v -0.144710 0.003494 -0.144711
v -0.113698 0.003494 -0.170162
v -0.078317 0.003494 -0.189074
v -0.039925 0.003494 -0.200719
v -1.000000 0.121584 1.000000
v 1.000000 0.121584 1.000000
v -1.000000 0.121584 -1.000000
v 1.000000 0.121584 -1.000000
v 0.197845 0.121584 0.132196
v 0.000000 0.121584 -0.237946
v -0.046421 0.121584 -0.233374
v -0.091058 0.121584 -0.219834
v -0.219833 0.121584 0.091058
v -0.197845 0.121584 0.132196
v -0.233374 0.121584 0.046421
v -0.168253 0.121584 0.168253
v -0.046421 0.121584 0.233374
v -0.000000 0.121584 0.237946
v -0.091058 0.121584 0.219833
v 0.233374 0.121584 -0.046421
v 0.132196 0.121584 -0.197845
v 0.237946 0.121584 -0.000000
v 0.219833 0.121584 -0.091058
v 0.046421 0.121584 0.233374
v -0.168253 0.121584 -0.168253
v -0.132195 0.121584 -0.197845
v -0.197845 0.121584 -0.132196
v 0.233374 0.121584 0.046421
v 0.132196 0.121584 0.197845
v 0.168253 0.121584 0.168253
v 0.219833 0.121584 0.091058
v -0.237946 0.121584 -0.000000
v -0.132196 0.121584 0.197845
v -0.233374 0.121584 -0.046421
v 0.168253 0.121584 -0.168253
v 0.091058 0.121584 0.219833
v 0.197845 0.121584 -0.132196
v -0.219833 0.121584 -0.091058
v 0.091058 0.121584 -0.219833
v 0.046421 0.121584 -0.233374
v -1.000000 0.092377 -1.000000
v -1.000000 0.092377 1.000000
v 1.000000 0.092377 1.000000
v 1.000000 0.092377 -1.000000
v 0.219833 0.092377 0.091058
v 0.197845 0.092377 0.132196
v -0.046421 0.092377 -0.233374
v 0.000000 0.092377 -0.237946
v -0.091058 0.092377 -0.219834
v -0.197845 0.092377 0.132196
v -0.219833 0.092377 0.091058
v -0.168253 0.092377 0.168253
v -0.233374 0.092377 0.046421
v -0.132196 0.092377 0.197845
v -0.000000 0.092377 0.237946
v -0.046421 0.092377 0.233374
v -0.091058 0.092377 0.219833
v 0.219833 0.092377 -0.091058
v 0.233374 0.092377 -0.046421
v 0.091058 0.092377 -0.219833
v 0.132196 0.092377 -0.197845
v 0.237946 0.092377 -0.000000
v 0.197845 0.092377 -0.132196
v -0.168253 0.092377 -0.168253
v -0.132195 0.092377 -0.197845
v 0.046421 0.092377 0.233374
v -0.197845 0.092377 -0.132196
v 0.233374 0.092377 0.046421
v 0.168253 0.092377 0.168253
v 0.132196 0.092377 0.197845
v -0.237946 0.092377 -0.000000
v -0.233374 0.092377 -0.046421
v 0.168253 0.092377 -0.168253
v 0.091058 0.092377 0.219833
v -0.219833 0.092377 -0.091058
v 0.046421 0.092377 -0.233374
vn 0.0369 0.9264 -0.3748
vn 0.1093 0.9264 -0.3604
vn 0.1775 0.9264 -0.3322
vn 0.2389 0.9264 -0.2911
vn 0.2911 0.9264 -0.2389
vn 0.3322 0.9264 -0.1775
vn 0.3604 0.9264 -0.1093
vn 0.3748 0.9264 -0.0369
vn 0.3748 0.9264 0.0369
vn 0.3604 0.9264 0.1093
vn 0.3322 0.9264 0.1775
vn 0.2911 0.9264 0.2389
vn 0.2389 0.9264 0.2911
vn 0.1775 0.9264 0.3322
vn 0.1093 0.9264 0.3604
vn 0.0369 0.9264 0.3748
vn -0.0369 0.9264 0.3748
vn -0.1093 0.9264 0.3604
vn -0.1775 0.9264 0.3322
vn -0.2389 0.9264 0.2911
vn -0.2911 0.9264 0.2389
vn -0.3322 0.9264 0.1775
vn -0.3604 0.9264 0.1093
vn -0.3748 0.9264 0.0369
vn -0.3748 0.9264 -0.0369
vn -0.3604 0.9264 -0.1093
vn -0.3322 0.9264 -0.1775
vn -0.2911 0.9264 -0.2389
vn -0.2389 0.9264 -0.2911
vn -0.1775 0.9264 -0.3322
vn 0.0557 0.9814 -0.1836
vn -0.1093 0.9264 -0.3604
vn -0.0369 0.9264 -0.3748
vn 0.0000 1.0000 0.0000
vn -0.8819 0.0000 -0.4714
vn -0.1217 0.9814 0.1483
vn -0.8315 0.0000 -0.5556
vn 0.0188 0.9814 0.1910
vn 0.0980 0.0000 -0.9952
vn -0.1951 0.0000 -0.9808
vn 0.1483 0.9814 0.1217
vn -0.5556 0.0000 0.8315
vn -0.0905 0.9814 -0.1693
vn 0.1910 0.9814 -0.0188
vn 0.9952 0.0000 0.0980
vn -0.1836 0.9814 -0.0557
vn 0.1217 0.9814 -0.1483
vn 0.9239 0.0000 -0.3827
vn -0.1693 0.9814 0.0905
vn -0.9952 0.0000 -0.0980
vn 0.3827 0.0000 -0.9239
vn -0.0557 0.9814 0.1836
vn 0.5556 0.0000 0.8315
vn -0.9239 0.0000 -0.3827
vn 0.0905 0.9814 0.1693
vn 0.5556 0.0000 -0.8315
vn -0.0980 0.0000 0.9952
vn -0.0188 0.9814 -0.1910
vn 0.1836 0.9814 0.0557
vn -0.9569 0.0000 0.2903
vn -0.1483 0.9814 -0.1217
vn 0.1693 0.9814 -0.0905
vn 0.9808 0.0000 0.1951
vn -0.1910 0.9814 0.0188
vn 0.1693 0.9814 0.0905
vn -0.1217 0.9814 -0.1483
vn 0.1836 0.9814 -0.0557
vn -0.1910 0.9814 -0.0188
vn 0.0905 0.9814 -0.1693
vn -0.1483 0.9814 0.1217
vn -0.0188 0.9814 0.1910
vn 0.1217 0.9814 0.1483
vn -0.0557 0.9814 -0.1836
vn 0.1910 0.9814 0.0188
vn -0.1693 0.9814 -0.0905
vn 0.1483 0.9814 -0.1217
vn -0.1836 0.9814 0.0557
vn 0.0188 0.9814 -0.1910
vn -0.0905 0.9814 0.1693
vn 0.0557 0.9814 0.1836
vn -1.0000 0.0000 0.0000
vn 0.7071 0.0000 0.7071
vn -0.7071 0.0000 0.7071
vn -0.6344 0.0000 -0.7730
vn -0.4714 0.0000 0.8819
vn 0.8315 0.0000 -0.5556
vn -0.3827 0.0000 -0.9239
vn -0.2903 0.0000 -0.9569
vn 0.8819 0.0000 0.4714
vn 0.1951 0.0000 0.9808
vn -0.9808 0.0000 0.1951
vn 0.4714 0.0000 -0.8819
vn 1.0000 -0.0000 0.0000
vn -0.0000 0.0000 1.0000
vn -0.7730 0.0000 0.6344
vn 0.1951 0.0000 -0.9808
vn 0.8315 0.0000 0.5556
vn 0.7730 0.0000 -0.6344
vn 0.6344 0.0000 0.7730
vn 0.7071 0.0000 -0.7071
vn -0.5556 0.0000 -0.8315
vn 0.9569 0.0000 -0.2903
vn -0.9239 0.0000 0.3827
vn 0.0000 -0.0000 -1.0000
vn -0.9808 0.0000 -0.1951
vn -0.3827 0.0000 0.9239
vn 0.2903 0.0000 0.9569
vn -0.7071 0.0000 -0.7071
vn -0.8315 0.0000 0.5556
vn 0.3827 0.0000 0.9239
vn 0.9808 0.0000 -0.1951
vn -0.1951 0.0000 0.9808
vn 0.9239 0.0000 0.3827
vn 0.9569 0.0000 0.2903
vn -0.4714 0.0000 -0.8819
vn 0.7730 0.0000 0.6344
vn -0.2903 0.0000 0.9569
vn -0.0980 0.0000 -0.9952
vn 0.4714 0.0000 0.8819
vn -0.6344 0.0000 0.7730
vn 0.2903 0.0000 -0.9569
vn 0.0980 0.0000 0.9952
vn -0.8819 0.0000 0.4714
vn 0.6344 0.0000 -0.7730
vn -0.9952 0.0000 0.0980
vn 0.8819 0.0000 -0.4714
vn -0.9569 0.0000 -0.2903
vn 0.9952 0.0000 -0.0980
vn -0.7730 0.0000 -0.6344
vn 0.0000 -1.0000 -0.0000
usemtl Material.001
s off
f 1//1 2//1 4//1 3//1
f 3//2 4//2 6//2 5//2
f 5//3 6//3 8//3 7//3
f 7//4 8//4 10//4 9//4
f 9//5 10//5 12//5 11//5
f 11//6 12//6 14//6 13//6
f 13//7 14//7 16//7 15//7
f 15//8 16//8 18//8 17//8
f 17//9 18//9 20//9 19//9
f 19//10 20//10 22//10 21//10
f 21//11 22//11 24//11 23//11
f 23//12 24//12 26//12 25//12
f 25//13 26//13 28//13 27//13
f 27//14 28//14 30//14 29//14
f 29//15 30//15 32//15 31//15
f 31//16 32//16 34//16 33//16
f 33//17 34//17 36//17 35//17
f 35//18 36//18 38//18 37//18
f 37//19 38//19 40//19 39//19
f 39//20 40//20 42//20 41//20
f 41//21 42//21 44//21 43//21
f 43//22 44//22 46//22 45//22
f 45//23 46//23 48//23 47//23
f 47//24 48//24 50//24 49//24
f 49//25 50//25 52//25 51//25
f 51//26 52//26 54//26 53//26
f 53//27 54//27 56//27 55//27
f 55//28 56//28 58//28 57//28
f 57//29 58//29 60//29 59//29
f 59//30 60//30 62//30 61//30
f 6//31 4//31 65//31 67//31
f 61//32 62//32 64//32 63//32
f 63//33 64//33 2//33 1//33
f 82//34 81//34 177//34 178//34
f 56//35 54//35 124//35 123//35
f 42//36 40//36 84//36 85//36
f 75//35 76//35 139//35 140//35
f 84//37 40//37 115//37 147//37
f 34//38 32//38 80//38 81//38
f 4//39 2//39 98//39 97//39
f 88//40 48//40 119//40 151//40
f 26//41 24//41 76//41 77//41
f 76//42 24//42 107//42 139//42
f 62//43 60//43 94//43 95//43
f 18//44 16//44 72//44 73//44
f 20//45 18//45 106//45 105//45
f 54//46 52//46 90//46 91//46
f 10//47 8//47 68//47 69//47
f 30//48 79//48 144//48 112//48
f 46//49 44//49 86//49 87//49
f 73//50 74//50 137//50 138//50
f 22//51 75//51 140//51 108//51
f 38//52 36//52 82//52 83//52
f 70//53 12//53 101//53 133//53
f 6//54 67//54 132//54 100//54
f 30//55 28//55 78//55 79//55
f 92//56 56//56 123//56 155//56
f 36//57 34//57 114//57 113//57
f 2//58 64//58 96//58 66//58
f 22//59 20//59 74//59 75//59
f 71//60 72//60 135//60 136//60
f 58//61 56//61 92//61 93//61
f 14//62 12//62 70//62 71//62
f 65//63 4//63 97//63 129//63
f 50//64 48//64 88//64 89//64
f 107//65 108//65 140//65 139//65
f 125//66 126//66 158//66 157//66
f 103//67 104//67 136//67 135//67
f 121//68 122//68 154//68 153//68
f 99//69 100//69 132//69 131//69
f 117//70 118//70 150//70 149//70
f 113//71 114//71 146//71 145//71
f 109//72 110//72 142//72 141//72
f 127//73 128//73 160//73 159//73
f 105//74 106//74 138//74 137//74
f 123//75 124//75 156//75 155//75
f 101//76 102//76 134//76 133//76
f 119//77 120//77 152//77 151//77
f 97//78 98//78 130//78 129//78
f 115//79 116//79 148//79 147//79
f 111//80 112//80 144//80 143//80
f 2//81 66//81 130//81 98//81
f 42//82 85//82 150//82 118//82
f 58//83 93//83 158//83 126//83
f 77//84 78//84 141//84 142//84
f 40//85 38//85 116//85 115//85
f 94//86 60//86 125//86 157//86
f 14//87 71//87 136//87 104//87
f 79//88 80//88 143//88 144//88
f 24//89 22//89 108//89 107//89
f 72//90 16//90 103//90 135//90
f 80//91 32//91 111//91 143//91
f 81//39 82//39 145//39 146//39
f 60//84 58//84 126//84 125//84
f 8//92 6//92 100//92 99//92
f 34//93 81//93 146//93 114//93
f 50//94 89//94 154//94 122//94
f 83//92 84//92 147//92 148//92
f 44//95 42//95 118//95 117//95
f 90//96 52//96 121//96 153//96
f 68//97 8//97 99//97 131//97
f 85//98 86//98 149//98 150//98
f 28//99 26//99 110//99 109//99
f 26//100 77//100 142//100 110//100
f 86//101 44//101 117//101 149//101
f 87//102 88//102 151//102 152//102
f 64//88 62//88 128//88 127//88
f 12//98 10//98 102//98 101//98
f 62//103 95//103 160//103 128//103
f 18//104 73//104 138//104 106//104
f 89//45 90//45 153//45 154//45
f 48//60 46//60 120//60 119//60
f 82//105 36//105 113//105 145//105
f 54//106 91//106 156//106 124//106
f 91//89 92//89 155//89 156//89
f 66//57 65//57 129//57 130//57
f 32//107 30//107 112//107 111//107
f 10//108 69//108 134//108 102//108
f 78//109 28//109 109//109 141//109
f 93//99 94//99 157//99 158//99
f 67//85 68//85 131//85 132//85
f 46//110 87//110 152//110 120//110
f 16//102 14//102 104//102 103//102
f 96//111 64//111 127//111 159//111
f 95//107 96//107 159//107 160//107
f 69//95 70//95 133//95 134//95
f 52//50 50//50 122//50 121//50
f 74//112 20//112 105//112 137//112
f 38//113 83//113 148//113 116//113
f 187//114 186//114 218//114 219//114
f 69//34 68//34 164//34 165//34
f 96//34 95//34 191//34 192//34
f 83//34 82//34 178//34 179//34
f 70//34 69//34 165//34 166//34
f 66//34 96//34 192//34 162//34
f 84//34 83//34 179//34 180//34
f 71//34 70//34 166//34 167//34
f 85//34 84//34 180//34 181//34
f 72//34 71//34 167//34 168//34
f 86//34 85//34 181//34 182//34
f 73//34 72//34 168//34 169//34
f 87//34 86//34 182//34 183//34
f 74//34 73//34 169//34 170//34
f 88//34 87//34 183//34 184//34
f 75//34 74//34 170//34 171//34
f 89//34 88//34 184//34 185//34
f 76//34 75//34 171//34 172//34
f 90//34 89//34 185//34 186//34
f 77//34 76//34 172//34 173//34
f 91//34 90//34 186//34 187//34
f 78//34 77//34 173//34 174//34
f 92//34 91//34 187//34 188//34
f 79//34 78//34 174//34 175//34
f 65//34 66//34 162//34 161//34
f 93//34 92//34 188//34 189//34
f 80//34 79//34 175//34 176//34
f 67//34 65//34 161//34 163//34
f 94//34 93//34 189//34 190//34
f 81//34 80//34 176//34 177//34
f 68//34 67//34 163//34 164//34
f 95//34 94//34 190//34 191//34
f 174//84 173//84 205//84 206//84
f 188//89 187//89 219//89 220//89
f 175//115 174//115 206//115 207//115
f 161//57 162//57 194//57 193//57
f 189//116 188//116 220//116 221//116
f 176//88 175//88 207//88 208//88
f 163//117 161//117 193//117 195//117
f 190//99 189//99 221//99 222//99
f 177//118 176//118 208//118 209//118
f 164//85 163//85 195//85 196//85
f 191//119 190//119 222//119 223//119
f 178//39 177//39 209//39 210//39
f 165//120 164//120 196//120 197//120
f 192//107 191//107 223//107 224//107
f 179//121 178//121 210//121 211//121
f 166//95 165//95 197//95 198//95
f 162//122 192//122 224//122 194//122
f 180//92 179//92 211//92 212//92
f 167//123 166//123 198//123 199//123
f 181//124 180//124 212//124 213//124
f 168//60 167//60 199//60 200//60
f 182//98 181//98 213//98 214//98
f 169//125 168//125 200//125 201//125
f 183//126 182//126 214//126 215//126
f 170//50 169//50 201//50 202//50
f 184//102 183//102 215//102 216//102
f 171//127 170//127 202//127 203//127
f 185//128 184//128 216//128 217//128
f 172//35 171//35 203//35 204//35
f 186//45 185//45 217//45 218//45
f 173//129 172//129 204//129 205//129
usemtl Material.002
f 225//34 226//34 242//34 248//34 251//34 229//34 250//34 249//34 256//34 244//34 238//34 237//34 239//34 253//34 236//34 234//34 233//34 235//34 252//34 227//34
f 227//34 252//34 254//34 258//34 247//34 245//34 246//34 232//34 231//34 230//34 260//34 259//34 241//34 255//34 257//34 243//34 240//34 242//34 226//34 228//34
f 262//130 261//130 291//130 273//130 271//130 270//130 272//130 274//130 277//130 276//130 275//130 286//130 294//130 290//130 289//130 266//130 265//130 288//130 282//130 263//130
f 261//130 264//130 263//130 282//130 279//130 278//130 283//130 293//130 281//130 280//130 296//130 268//130 267//130 269//130 285//130 284//130 287//130 295//130 292//130 291//130
f 251//89 229//89 266//89 265//89
f 256//107 244//107 286//107 294//107
f 244//122 238//122 275//122 286//122
f 231//118 230//118 268//118 267//118
f 258//35 247//35 287//35 295//35
f 247//129 245//129 284//129 287//129
f 232//88 231//88 267//88 269//88
f 260//121 259//121 280//121 296//121
f 242//45 248//45 288//45 282//45
f 234//123 233//123 271//123 270//123
f 254//127 258//127 295//127 292//127
f 250//99 249//99 290//99 289//99
f 236//95 234//95 270//95 272//95
f 230//39 260//39 296//39 268//39
f 248//114 251//114 265//114 288//114
f 233//60 235//60 273//60 271//60
f 229//116 250//116 289//116 266//116
f 253//120 236//120 272//120 274//120
f 235//125 252//125 291//125 273//125
f 238//57 237//57 276//57 275//57
f 246//115 232//115 269//115 285//115
f 237//117 239//117 277//117 276//117
f 239//85 253//85 274//85 277//85
f 243//102 240//102 279//102 278//102
f 227//81 261//81 262//81 225//81
f 252//50 254//50 292//50 291//50
f 259//92 241//92 281//92 280//92
f 225//94 262//94 263//94 226//94
f 241//124 255//124 293//124 281//124
f 240//128 242//128 282//128 279//128
f 226//93 263//93 264//93 228//93
f 249//119 256//119 294//119 290//119
f 257//126 243//126 278//126 283//126
f 228//104 264//104 261//104 227//104
f 255//98 257//98 283//98 293//98
f 245//84 246//84 285//84 284//84
